<?xml version="1.0" encoding="UTF-8" standalone="no"?>
<!-- Generator: Adobe Illustrator 16.0.0, SVG Export Plug-In . SVG Version: 6.00 Build 0)  -->

<svg
   xmlns:dc="http://purl.org/dc/elements/1.1/"
   xmlns:cc="http://creativecommons.org/ns#"
   xmlns:rdf="http://www.w3.org/1999/02/22-rdf-syntax-ns#"
   xmlns:svg="http://www.w3.org/2000/svg"
   xmlns="http://www.w3.org/2000/svg"
   xmlns:sodipodi="http://sodipodi.sourceforge.net/DTD/sodipodi-0.dtd"
   xmlns:inkscape="http://www.inkscape.org/namespaces/inkscape"
   version="1.1"
   id="Capa_1"
   x="0px"
   y="0px"
   width="118.336"
   height="118.336"
   viewBox="0 0 118.336 118.336"
   xml:space="preserve"
   sodipodi:docname="Lua-minguante.svg"
   inkscape:version="0.92.4 (5da689c313, 2019-01-14)"><metadata
   id="metadata41"><rdf:RDF><cc:Work
       rdf:about=""><dc:format>image/svg+xml</dc:format><dc:type
         rdf:resource="http://purl.org/dc/dcmitype/StillImage" /><dc:title /></cc:Work></rdf:RDF></metadata><defs
   id="defs39" /><sodipodi:namedview
   pagecolor="#ffffff"
   bordercolor="#666666"
   borderopacity="0"
   objecttolerance="10"
   gridtolerance="10"
   guidetolerance="10"
   inkscape:pageopacity="0"
   inkscape:pageshadow="2"
   inkscape:window-width="845"
   inkscape:window-height="480"
   id="namedview37"
   showgrid="false"
   fit-margin-top="5"
   fit-margin-right="5"
   fit-margin-bottom="5"
   fit-margin-left="5"
   inkscape:zoom="2.1784079"
   inkscape:cx="-36.085053"
   inkscape:cy="59.168002"
   inkscape:window-x="0"
   inkscape:window-y="27"
   inkscape:window-maximized="0"
   inkscape:current-layer="Capa_1" />
<g
   id="g4"
   transform="translate(5,5)"
   style="stroke:#000000;stroke-opacity:1;stroke-width:4;stroke-miterlimit:4;stroke-dasharray:none">
	<path
   d="M 54.168,0 C 24.3,0 0,24.3 0,54.168 c 0,29.869 24.3,54.168 54.168,54.168 29.868,0 54.168,-24.299 54.168,-54.168 C 108.336,24.3 84.036,0 54.168,0 Z M 39.709,91.702 c 4.194,10.373 9.197,15.558 15.007,15.558 -14.648,0 -27.181,-5.185 -37.593,-15.558 C 6.708,81.329 1.503,68.816 1.503,54.168 1.503,39.561 6.708,27.061 17.123,16.666 27.535,6.274 40.067,1.077 54.716,1.077 c -5.81,0 -10.813,5.198 -15.007,15.589 -4.194,10.395 -6.29,22.895 -6.29,37.502 0,14.648 2.096,27.161 6.29,37.534 z"
   id="path2"
   inkscape:connector-curvature="0"
   style="stroke:#000000;stroke-opacity:1;stroke-width:4;stroke-miterlimit:4;stroke-dasharray:none" />
</g>
<g
   id="g6"
   transform="translate(5,5)">
</g>
<g
   id="g8"
   transform="translate(5,5)">
</g>
<g
   id="g10"
   transform="translate(5,5)">
</g>
<g
   id="g12"
   transform="translate(5,5)">
</g>
<g
   id="g14"
   transform="translate(5,5)">
</g>
<g
   id="g16"
   transform="translate(5,5)">
</g>
<g
   id="g18"
   transform="translate(5,5)">
</g>
<g
   id="g20"
   transform="translate(5,5)">
</g>
<g
   id="g22"
   transform="translate(5,5)">
</g>
<g
   id="g24"
   transform="translate(5,5)">
</g>
<g
   id="g26"
   transform="translate(5,5)">
</g>
<g
   id="g28"
   transform="translate(5,5)">
</g>
<g
   id="g30"
   transform="translate(5,5)">
</g>
<g
   id="g32"
   transform="translate(5,5)">
</g>
<g
   id="g34"
   transform="translate(5,5)">
</g>
</svg>